<svg width="56" height="56" viewBox="0 0 56 56" fill="none" xmlns="http://www.w3.org/2000/svg">
<circle cx="28" cy="28" r="28" transform="rotate(-90 28 28)" fill="#FF9900"/>
<g clip-path="url(#clip0_405_11)">
<path d="M36.4525 25.9088L28 17.5L19.5475 25.9087C19.4478 25.9847 19.3656 26.0812 19.3064 26.1917C19.2472 26.3022 19.2124 26.4241 19.2044 26.5492C19.1964 26.6743 19.2154 26.7996 19.2601 26.9167C19.3048 27.0339 19.3741 27.14 19.4634 27.228C19.5526 27.316 19.6598 27.3838 19.7775 27.4268C19.8952 27.4698 20.0208 27.487 20.1458 27.4772C20.2708 27.4675 20.3922 27.431 20.5018 27.3702C20.6115 27.3094 20.7068 27.2258 20.7813 27.125L27.125 20.8338L27.125 37.5725C27.125 37.8046 27.2172 38.0271 27.3813 38.1912C27.5454 38.3553 27.768 38.4475 28 38.4475C28.2321 38.4475 28.4546 38.3553 28.6187 38.1912C28.7828 38.0271 28.875 37.8046 28.875 37.5725L28.875 20.8338L35.2188 27.125C35.3835 27.2886 35.6066 27.3801 35.8387 27.3792C36.0709 27.3784 36.2933 27.2854 36.4569 27.1206C36.6205 26.9559 36.712 26.7329 36.7111 26.5007C36.7103 26.2685 36.6173 26.0461 36.4525 25.8825L36.4525 25.9088Z" fill="white"/>
</g>
<defs>
<clipPath id="clip0_405_11">
<rect width="31.5" height="31.5" fill="white" transform="translate(12.25 12.25)"/>
</clipPath>
</defs>
</svg>
